<svg xmlns="http://www.w3.org/2000/svg" width="21" height="20" fill="none"><path stroke="#cac1e6" stroke-linecap="round" stroke-linejoin="round" stroke-width="2" d="M12.262 12.802a1 1 0 0 1 1-1h4.894a1 1 0 0 1 1 1v4.894a1 1 0 0 1-1 1h-4.894a1 1 0 0 1-1-1zM1 2a1 1 0 0 1 1-1h4.895a1 1 0 0 1 1 1v4.895a1 1 0 0 1-1 1H2a1 1 0 0 1-1-1zM12.262 2a1 1 0 0 1 1-1h4.894a1 1 0 0 1 1 1v4.895a1 1 0 0 1-1 1h-4.894a1 1 0 0 1-1-1zM1 12.802a1 1 0 0 1 1-1h4.895a1 1 0 0 1 1 1v4.894a1 1 0 0 1-1 1H2a1 1 0 0 1-1-1z"/></svg>