<svg xmlns="http://www.w3.org/2000/svg" width="25" height="27" fill="none"><path fill="#52319c" d="M1.247 8.754h22.506v16.254H25V5.005h-1.247v2.494H1.247V5.005H0v20.003h1.247zM23.753 3.749h-1.247v1.255h1.247z"/><path fill="#52319c" d="M23.753 25.008H1.247v1.247h22.506zM20.003 15.007h-2.502v1.247h-1.248v-1.247h-2.502v1.247h-1.247v2.502h1.247v1.247h1.247v1.247h1.255v1.256h1.248V21.25h1.247v-1.247h1.255v-1.247h1.247v-2.502h-1.247zM20.003 11.249h-1.255v1.255h1.255zM15 11.249h-1.248v1.255h1.247zM10.002 21.25H8.747v1.256h1.255zM10.002 16.253H8.747V17.5h1.255zM10.002 11.249H8.747v1.255h1.255zM4.997 21.25H3.75v1.256h1.247zM4.997 16.253H3.75V17.5h1.247zM4.997 11.249H3.75v1.255h1.247zM6.252 3.75v1.255h1.247V3.75H17.5v1.255h1.247V3.75h3.758V2.502h-3.758V0H17.5v2.502H7.5V0H6.252v2.502h-3.75V3.75zM2.502 3.749H1.247v1.255h1.255z"/></svg>