<svg width="25" height="27" viewBox="0 0 25 27" fill="none" xmlns="http://www.w3.org/2000/svg">
<path d="M1.24713 8.75447H23.7529V25.0082H25V5.00488H23.7529V7.49914H1.24713V5.00488H0V25.0082H1.24713V8.75447Z" fill="#6155F5"/>
<path d="M23.753 3.74902H22.5059V5.00436H23.753V3.74902Z" fill="#6155F5"/>
<path d="M23.7528 25.0078H1.24707V26.2549H23.7528V25.0078Z" fill="#6155F5"/>
<path d="M20.0031 15.0066H17.5006V16.2537H16.2535V15.0066H13.751V16.2537H12.5039V18.7562H13.751V20.0033H14.9982V21.2504H16.2535V22.5058H17.5006V21.2504H18.7478V20.0033H20.0031V18.7562H21.2502V16.2537H20.0031V15.0066Z" fill="#6155F5"/>
<path d="M20.0034 11.2485H18.748V12.5039H20.0034V11.2485Z" fill="#6155F5"/>
<path d="M14.9991 11.2485H13.752V12.5039H14.9991V11.2485Z" fill="#6155F5"/>
<path d="M10.0024 21.2502H8.74707V22.5056H10.0024V21.2502Z" fill="#6155F5"/>
<path d="M10.0024 16.2534H8.74707V17.5005H10.0024V16.2534Z" fill="#6155F5"/>
<path d="M10.0024 11.2485H8.74707V12.5039H10.0024V11.2485Z" fill="#6155F5"/>
<path d="M4.99713 21.2502H3.75V22.5056H4.99713V21.2502Z" fill="#6155F5"/>
<path d="M4.99713 16.2534H3.75V17.5005H4.99713V16.2534Z" fill="#6155F5"/>
<path d="M4.99713 11.2485H3.75V12.5039H4.99713V11.2485Z" fill="#6155F5"/>
<path d="M6.25154 3.74959V5.00492H7.49867V3.74959H17.5003V5.00492H18.7474V3.74959H22.5052V2.50246H18.7474V0H17.5003V2.50246H7.49867V0H6.25154V2.50246H2.50195V3.74959H6.25154Z" fill="#6155F5"/>
<path d="M2.5024 3.74902H1.24707V5.00436H2.5024V3.74902Z" fill="#6155F5"/>
</svg>
