<svg xmlns="http://www.w3.org/2000/svg" width="14" height="14" fill="none"><path fill="#6b5a91" d="M11.013 3.442v7.571h.691v-7.57h1.373v-.687h-.686v-.691H9.635V.686h-.687v1.377h-4.82V.687h-.686v1.377H.692v.692H0v.686h1.378v7.571h.686v-7.57zM11.013 11.013h-.687v2.064h.687zM10.326 13.077H2.755v.691h7.57z"/><path fill="#6b5a91" d="M9.636 4.82h-.687v5.506h.687zM8.948 10.326h-.686V11.7h.686zM6.884 4.82h-.687v6.88h.687zM8.949 0h-4.82v.687h4.82zM4.82 10.326h-.691V11.7h.691zM4.129 4.82h-.687v5.506h.687zM2.756 11.013h-.692v2.064h.692z"/></svg>