<svg width="25" height="27" viewBox="0 0 25 27" fill="none" xmlns="http://www.w3.org/2000/svg">
<path d="M0 13.7512H2.49426V12.5041H3.74959V11.2488H4.99672V10.0016H6.25205V8.75451H7.49918V7.49918H8.74631V6.25205H10.0016V4.99672H11.2488V3.74959H13.7512V4.99672H14.9984V6.25205H16.2537V7.49918H17.5008V8.75451H18.7479V10.0016H20.0033V11.2488H21.2504V12.5041H22.4975V13.7512H25V11.2488H23.7529V10.0016H22.4975V8.75451H21.2504V7.49918H20.0033V6.25205H18.7479V4.99672H17.5008V3.74959H16.2537V2.50246H14.9984V1.24713H13.7512V0H11.2488V1.24713H10.0016V2.50246H8.74631V3.74959H7.49918V4.99672H6.25205V6.25205H4.99672V7.49918H3.74959V8.75451H2.49426V10.0016H1.24713V11.2488H0V13.7512Z" fill="#6155F5"/>
<path d="M21.2511 25.0081H16.2544V18.7561H14.999V26.2553H22.4982V14.9983H21.2511V25.0081Z" fill="#6155F5"/>
<path d="M21.2501 13.751H20.0029V14.9981H21.2501V13.751Z" fill="#6155F5"/>
<path d="M20.0034 12.5044H18.748V13.7515H20.0034V12.5044Z" fill="#6155F5"/>
<path d="M18.7481 11.2488H17.501V12.5041H18.7481V11.2488Z" fill="#6155F5"/>
<path d="M17.5001 10.0017H16.2529V11.2488H17.5001V10.0017Z" fill="#6155F5"/>
<path d="M16.2544 8.75439H14.999V10.0015H16.2544V8.75439Z" fill="#6155F5"/>
<path d="M14.9981 17.501H13.751V18.7563H14.9981V17.501Z" fill="#6155F5"/>
<path d="M14.9981 7.49927H13.751V8.7546H14.9981V7.49927Z" fill="#6155F5"/>
<path d="M13.7515 16.2537H11.249V17.5008H13.7515V16.2537Z" fill="#6155F5"/>
<path d="M13.7515 6.2522H11.249V7.49933H13.7515V6.2522Z" fill="#6155F5"/>
<path d="M11.2491 17.501H10.002V18.7563H11.2491V17.501Z" fill="#6155F5"/>
<path d="M11.2491 7.49927H10.002V8.7546H11.2491V7.49927Z" fill="#6155F5"/>
<path d="M10.0015 18.7561H8.74619V25.0081H3.74947V14.9983H2.49414V26.2553H10.0015V18.7561Z" fill="#6155F5"/>
<path d="M10.0014 8.75439H8.74609V10.0015H10.0014V8.75439Z" fill="#6155F5"/>
<path d="M8.74615 10.0017H7.49902V11.2488H8.74615V10.0017Z" fill="#6155F5"/>
<path d="M7.49908 11.2488H6.25195V12.5041H7.49908V11.2488Z" fill="#6155F5"/>
<path d="M6.2524 12.5044H4.99707V13.7515H6.2524V12.5044Z" fill="#6155F5"/>
<path d="M4.99713 13.751H3.75V14.9981H4.99713V13.751Z" fill="#6155F5"/>
</svg>
