<svg xmlns="http://www.w3.org/2000/svg" width="25" height="27" fill="none"><path fill="#52319c" d="M0 13.751h2.494v-1.247H3.75V11.25h1.247v-1.247h1.255V8.755h1.247V7.499h1.247V6.252h1.256V4.997h1.247V3.75h2.502v1.247h1.247v1.255h1.256v1.247H17.5v1.256h1.247v1.247h1.255v1.247h1.247v1.255h1.247v1.247H25V11.25h-1.247v-1.247h-1.256V8.755H21.25V7.499h-1.247V6.252h-1.255V4.997H17.5V3.75h-1.247V2.502h-1.256V1.247h-1.247V0H11.25v1.247h-1.247v1.255H8.746V3.75H7.5v1.247H6.252v1.255H4.997v1.247H3.75v1.256H2.494v1.247H1.247v1.247H0zM21.251 25.008h-4.997v-6.252H15v7.5h7.5V14.997H21.25z"/><path fill="#52319c" d="M21.25 13.751h-1.247v1.247h1.247zM20.003 12.504h-1.255v1.248h1.255zM18.748 11.249h-1.247v1.255h1.247zM17.5 10.002h-1.247v1.247H17.5zM16.254 8.754H15v1.248h1.255zM14.998 17.501h-1.247v1.255h1.247zM14.998 7.5h-1.247v1.255h1.247zM13.752 16.254h-2.503V17.5h2.502zM13.752 6.252h-2.503V7.5h2.502zM11.25 17.501h-1.248v1.255h1.247zM11.25 7.5h-1.248v1.255h1.247zM10.002 18.756H8.746v6.252H3.75v-10.01H2.494v11.257h7.508zM10.001 8.754H8.746v1.248h1.255zM8.746 10.002H7.5v1.247h1.247zM7.5 11.249H6.251v1.255h1.247z"/><path fill="#52319c" d="M6.252 12.504H4.997v1.248h1.255zM4.997 13.751H3.75v1.247h1.247z"/></svg>