<svg xmlns="http://www.w3.org/2000/svg" width="82" height="75" fill="none"><path fill="#d3c7eb" d="M50.763 54.658v-3.895h-3.895v3.895H27.342v-3.895h-3.895v-11.71h3.895v-3.921h19.526v3.92h3.895v-3.92h27.342v3.92H82v-7.815H66.394v-3.882H62.5v3.895H39.053v-3.895h-3.895v-3.921h3.895v-3.908h23.446v3.895h3.895V11.723H62.5v3.895H39.053v-3.895h-3.895v3.895H3.92v3.921H0v11.71h3.92v3.896h3.896v3.92h3.92v-3.92h7.79v3.92h-3.895v11.71h3.895v3.896h-7.79v-3.895h-3.92v3.895H3.92v3.92H0v11.711h3.92v3.895H82v-7.815h-3.895v3.92H46.868v-3.92h-3.895v-3.896h3.895v-3.894h31.237v3.895H82V50.776h-3.895v3.895zM15.631 27.355H7.816v-3.921h7.815zm19.527 35.132h-3.896v3.895h3.895v3.92h-3.894v-3.92h-3.921v-3.896h3.92v-3.894h3.895z"/><path fill="#ad9ad2" d="M78.105 39.053H74.21v11.71h3.895zM78.105 62.474H50.763v3.895h27.342zM70.29 46.843H54.683v3.92h15.605zM70.29 39.053H54.683v3.895h15.605zM62.499 23.421H42.973v3.92h19.526zM62.499 7.816H42.973v3.895h19.526zM46.868 39.053h-3.895v11.71h3.895zM35.158 7.816h-3.895v3.895h3.895zM15.631 7.816H7.815v3.895h7.816zM35.158 3.895v3.92h3.895v-3.92H62.5v3.92h3.895V0H3.92v3.895zM7.816 39.053H3.92v11.71h3.895zM3.92 3.895H0v11.71h3.92z"/></svg>