<svg xmlns="http://www.w3.org/2000/svg" width="25" height="25" fill="none"><path fill="#52319c" d="M22.625 4.766V0H10.719v1.188H5.953v1.195h-3.57v8.336H1.195v2.375H0V25h25V4.766zM5.953 23.813H1.195v-7.149h4.758zm0-8.336H3.578V3.57h2.375zM7.148 2.383h3.57V3.57H8.337v11.907H7.148zm3.57 2.383v10.71H9.532V4.767zm1.188 19.047H7.148v-7.149h4.758zm11.907 0H13.102v-8.336h-1.196V1.187h9.524v3.579h-3.57v1.187h5.953z"/><path fill="#52319c" d="M21.43 16.664h-1.188v1.195h1.188zM21.43 14.29h-1.188v1.187h1.188zM20.242 17.86H17.86v1.187h2.383zM17.86 16.664h-1.188v1.195h1.187zM17.86 14.29h-1.188v1.187h1.187zM17.86 5.953h-1.188v2.383h1.187zM16.672 8.336h-1.195v2.383h1.195zM15.477 10.719h-1.188v2.375h1.188zM15.477 2.383h-1.188V3.57h1.188zM14.29 13.094h-1.188v2.383h1.187zM10.719 19.047H8.336v2.383h2.383zM4.766 19.047H2.383v2.383h2.383z"/></svg>