<svg width="25" height="28" viewBox="0 0 25 28" fill="none" xmlns="http://www.w3.org/2000/svg">
<path d="M21.0538 7.89298V5.26779H25.0002V3.94656H21.0538V1.31274H19.7412V7.89298H21.0538Z" fill="#6155F5"/>
<path d="M21.0538 26.3207V23.6869H25.0002V22.3657H21.0538V19.7405H19.7412V26.3207H21.0538Z" fill="#6155F5"/>
<path d="M24.9997 13.1605H6.58023V10.5267H5.26764V9.21411H3.94641V10.5267H2.63382V13.1605H0V14.4731H2.63382V17.1069H3.94641V18.4195H5.26764V17.1069H6.58023V14.4731H24.9997V13.1605Z" fill="#6155F5"/>
<path d="M19.7411 26.321H18.4199V27.6336H19.7411V26.321Z" fill="#6155F5"/>
<path d="M19.7411 18.4197H18.4199V19.7409H19.7411V18.4197Z" fill="#6155F5"/>
<path d="M19.7411 7.89307H18.4199V9.21429H19.7411V7.89307Z" fill="#6155F5"/>
<path d="M19.7411 0H18.4199V1.31259H19.7411V0Z" fill="#6155F5"/>
<path d="M18.4195 19.7405H17.1069V22.3657H0V23.6869H17.1069V26.3207H18.4195V19.7405Z" fill="#6155F5"/>
<path d="M17.1069 3.94656H0V5.26779H17.1069V7.89298H18.4195V1.31274H17.1069V3.94656Z" fill="#6155F5"/>
</svg>
