<svg xmlns="http://www.w3.org/2000/svg" width="25" height="28" fill="none"><path fill="#52319c" d="M21.054 7.893V5.268H25V3.947h-3.946V1.313H19.74v6.58zM21.054 26.321v-2.634H25v-1.321h-3.946V19.74H19.74v6.58zM25 13.16H6.58v-2.633H5.268V9.214H3.946v1.313H2.634v2.634H0v1.312h2.634v2.634h1.312v1.313h1.322v-1.313H6.58v-2.634H25zM19.741 26.321H18.42v1.313h1.321z"/><path fill="#52319c" d="M19.741 18.42H18.42v1.32h1.321zM19.741 7.893H18.42v1.321h1.321zM19.741 0H18.42v1.313h1.321zM18.42 19.74h-1.313v2.626H0v1.321h17.107v2.634h1.313zM17.107 3.947H0v1.32h17.107v2.626h1.313v-6.58h-1.313z"/></svg>