<svg width="25" height="28" viewBox="0 0 25 28" fill="none" xmlns="http://www.w3.org/2000/svg">
<path d="M22.3742 2.6339H23.6869V1.31263H24.9995V0H17.1064V1.31263H22.3742V2.6339Z" fill="#6155F5"/>
<path d="M22.375 2.63354H21.0537V3.94617H22.375V2.63354Z" fill="#6155F5"/>
<path d="M21.0548 3.94604H19.7422V5.26731H21.0548V3.94604Z" fill="#6155F5"/>
<path d="M19.7413 5.26782H18.4287V6.58045H19.7413V5.26782Z" fill="#6155F5"/>
<path d="M18.4277 6.58032H17.1064V9.21422H18.4277V6.58032Z" fill="#6155F5"/>
<path d="M18.4277 2.63354H17.1064V3.94617H18.4277V2.63354Z" fill="#6155F5"/>
<path d="M17.1076 9.21436H15.7949V10.527H17.1076V9.21436Z" fill="#6155F5"/>
<path d="M17.1076 3.94604H15.7949V5.26731H17.1076V3.94604Z" fill="#6155F5"/>
<path d="M17.1075 1.3125H14.4736V2.63377H17.1075V1.3125Z" fill="#6155F5"/>
<path d="M15.7949 5.26782H14.4736V6.58045H15.7949V5.26782Z" fill="#6155F5"/>
<path d="M15.7941 10.5271H13.1602V11.8484H15.7941V10.5271Z" fill="#6155F5"/>
<path d="M14.4728 6.58032H13.1602V7.89295H14.4728V6.58032Z" fill="#6155F5"/>
<path d="M14.4728 2.63354H13.1602V3.94617H14.4728V2.63354Z" fill="#6155F5"/>
<path d="M1.32127 27.6345H13.1608V26.3219H14.4735V21.0541H13.1608V22.3753H6.58042V21.0541H3.95084V19.7415H1.32127V21.0541H0V26.3219H1.32127V27.6345ZM2.6339 22.3753H3.95084V25.0006H6.58474V26.3219H3.95084V25.0006H2.6339V22.3753Z" fill="#6155F5"/>
<path d="M13.1603 7.89331H11.8477V9.21458H13.1603V7.89331Z" fill="#6155F5"/>
<path d="M13.1603 3.94604H11.8477V5.26731H13.1603V3.94604Z" fill="#6155F5"/>
<path d="M13.1612 19.7415H10.5273V21.0541H13.1612V19.7415Z" fill="#6155F5"/>
<path d="M13.1615 11.8483H10.5276V10.527H9.21497V9.21436H7.90234V13.1609H13.1615V11.8483Z" fill="#6155F5"/>
<path d="M11.8486 9.21436H10.5273V10.527H11.8486V9.21436Z" fill="#6155F5"/>
<path d="M11.8486 5.26782H10.5273V6.58045H11.8486V5.26782Z" fill="#6155F5"/>
<path d="M10.5275 6.58032H9.21484V9.21422H10.5275V6.58032Z" fill="#6155F5"/>
<path d="M5.26768 17.1077H9.21421V19.7416H10.5268V17.1077H11.8481V15.795H7.90158V13.1611H6.58031V15.795H2.63379V17.1077H3.94642V19.7416H5.26768V17.1077Z" fill="#6155F5"/>
</svg>
