<svg xmlns="http://www.w3.org/2000/svg" width="25" height="28" fill="none"><path fill="#52319c" d="M22.374 2.634h1.313V1.313H25V0h-7.894v1.313h5.268zM22.375 2.634h-1.321v1.312h1.321zM21.055 3.946h-1.313v1.321h1.313zM19.741 5.268H18.43V6.58h1.312zM18.428 6.58h-1.322v2.634h1.322zM18.428 2.634h-1.322v1.312h1.322zM17.108 9.214h-1.313v1.313h1.313zM17.108 3.946h-1.313v1.321h1.313z"/><path fill="#52319c" d="M17.108 1.313h-2.634v1.32h2.634zM15.795 5.268h-1.321V6.58h1.32zM15.794 10.527H13.16v1.321h2.634zM14.473 6.58H13.16v1.313h1.313zM14.473 2.634H13.16v1.312h1.313zM1.321 27.635h11.84v-1.313h1.313v-5.268H13.16v1.321H6.58v-1.32H3.95V19.74H1.32v1.313H0v5.268h1.321zm1.313-5.26H3.95v2.626h2.634v1.32H3.95v-1.32H2.634zM13.16 7.893h-1.312v1.322h1.312zM13.16 3.946h-1.312v1.321h1.312z"/><path fill="#52319c" d="M13.161 19.742h-2.634v1.312h2.634zM13.162 11.848h-2.634v-1.321H9.215V9.214H7.902v3.947h5.26z"/><path fill="#52319c" d="M11.849 9.214h-1.322v1.313h1.322zM11.849 5.268h-1.322V6.58h1.322zM10.528 6.58H9.215v2.634h1.313zM5.268 17.108h3.946v2.634h1.313v-2.634h1.321v-1.313H7.902v-2.634H6.58v2.634H2.634v1.313h1.312v2.634h1.322z"/></svg>