<?xml version="1.0" encoding="UTF-8"?>
<svg version="1.1" xmlns="http://www.w3.org/2000/svg" width="512" height="512">
<path d="M0 0 C1.03129115 -0.00445784 2.0625823 -0.00891569 3.12512469 -0.01350862 C4.26176602 -0.01332426 5.39840734 -0.01313989 6.56949234 -0.01294994 C8.3766846 -0.01846498 8.3766846 -0.01846498 10.22038579 -0.02409142 C13.57092967 -0.03322095 16.92142456 -0.03782858 20.27197623 -0.04048073 C23.88370383 -0.04438347 27.49541723 -0.05396221 31.10713577 -0.0626936 C39.83573279 -0.08246459 48.56433097 -0.09252753 57.29294479 -0.10142139 C61.40629964 -0.10580548 65.51965321 -0.11117219 69.63300705 -0.11641026 C83.31386294 -0.13342737 96.99471803 -0.14791863 110.67558289 -0.155159 C114.22666551 -0.15706883 117.77774812 -0.15898916 121.32883072 -0.16094494 C122.21141215 -0.16142868 123.09399357 -0.16191242 124.00331989 -0.16241082 C138.28082614 -0.17070007 152.5582483 -0.1960161 166.83571789 -0.22852562 C181.50457794 -0.26165287 196.17339538 -0.27961309 210.84229302 -0.28280324 C219.07389933 -0.2849637 227.30538322 -0.29364346 235.53695297 -0.31926441 C242.55229071 -0.3410494 249.56747632 -0.34898393 256.58284405 -0.33929763 C260.15741249 -0.33477461 263.73166761 -0.33652092 267.3061924 -0.35605907 C289.52403842 -0.4705797 309.83400641 0.49588876 326.90939713 16.78656483 C340.70511893 32.02779425 344.92247639 48.35278686 344.20920181 68.54340076 C343.28030408 82.31080682 336.05061262 95.76358197 326.03439713 105.13422108 C309.70381307 118.78556869 292.87266234 121.55396576 272.28439713 121.82172108 C270.50833141 121.85496555 268.73228866 121.88946153 266.95627213 121.9252367 C262.64910908 122.00931408 258.3419907 122.07650162 254.03439713 122.13422108 C253.77827652 123.34150867 253.52215591 124.54879627 253.25827408 125.79266834 C252.90918176 127.40788035 252.55980111 129.02303005 252.21017838 130.63812733 C252.0429628 131.43013538 251.87574722 132.22214344 251.70346451 133.03815174 C247.98687956 150.09251626 240.01946891 163.58667299 228.03439713 176.13422108 C227.24162369 177.03914295 227.24162369 177.03914295 226.43283463 177.96234608 C220.4352847 184.54427266 211.97911086 190.16186421 204.03439713 194.13422108 C205.26299674 194.13780361 205.26299674 194.13780361 206.51641655 194.14145851 C226.44694619 194.20059683 246.37735479 194.27613946 266.30775261 194.36993599 C275.94595242 194.41489982 285.58411523 194.45431315 295.22238541 194.48065662 C303.62319133 194.50363193 312.02388022 194.53702475 320.42459333 194.58292264 C324.87263626 194.60686115 329.32056325 194.62558581 333.76866913 194.63183498 C337.95642162 194.63788299 342.14387742 194.65787251 346.33152008 194.68849659 C347.86735855 194.69728137 349.40323578 194.70099848 350.93909836 194.69922924 C353.03929122 194.69757397 355.1385823 194.71429563 357.23865128 194.73549366 C358.41301554 194.74010262 359.5873798 194.74471159 360.79733086 194.74946022 C365.76860714 195.34035097 369.00463857 196.99313727 372.34689713 200.69672108 C375.77629455 205.65029513 375.64403773 210.22154231 375.03439713 216.13422108 C373.03200062 220.13901408 370.85440835 222.79292387 367.03439713 225.13422108 C363.70898369 226.24269222 361.35914125 226.18387278 357.86252213 226.09906483 C356.64049088 226.09584217 355.41845963 226.09261951 354.15939713 226.0892992 C351.59128739 226.07764951 349.02308266 226.03117883 346.45627213 225.9486742 C339.48655073 225.87517368 339.48655073 225.87517368 333.67990494 229.24261951 C331.85677124 231.80684894 330.40755289 234.30608804 329.03439713 237.13422108 C328.54769547 238.07177235 328.0609938 239.00932362 327.55954361 239.97528553 C319.40750467 256.17479006 318.35834857 275.40796062 323.69455338 292.68890858 C326.65558636 300.30299341 330.31572439 308.21615933 336.03439713 314.13422108 C339.01556319 314.86257616 339.01556319 314.86257616 342.33908463 314.73578358 C343.56240494 314.75125233 344.78572525 314.76672108 346.04611588 314.78265858 C347.32099869 314.7749242 348.5958815 314.76718983 349.90939713 314.75922108 C352.42765995 314.75922108 354.94596101 314.77180488 357.46408463 314.79828358 C358.58025162 314.79264393 359.69641861 314.78700428 360.84640884 314.78119373 C365.79828099 315.32954778 369.02411358 317.01471769 372.34689713 320.69672108 C375.77629455 325.65029513 375.64403773 330.22154231 375.03439713 336.13422108 C373.03200062 340.13901408 370.85440835 342.79292387 367.03439713 345.13422108 C363.4837464 346.31777132 360.66924579 346.2633263 356.91918373 346.26844215 C355.81996731 346.2719705 355.81996731 346.2719705 354.6985445 346.27557012 C352.22359714 346.28226882 349.74870217 346.28180164 347.27374649 346.2813921 C345.48898413 346.28469023 343.70422251 346.28841569 341.91946185 346.29253358 C336.9993746 346.30256832 332.07929956 346.30627277 327.15920353 346.30892289 C321.85826281 346.31282182 316.55733179 346.32240074 311.25639725 346.33113575 C298.44321356 346.35091637 285.63002906 346.36097041 272.81683391 346.36986354 C266.78207118 346.37424561 260.74730934 346.3796128 254.7125473 346.38485241 C234.64767959 346.40186965 214.58281243 346.41636199 194.51793861 346.42360115 C189.30858103 346.42551105 184.09922344 346.42743138 178.88986588 346.42938709 C177.59510423 346.42987083 176.30034259 346.43035457 174.96634574 346.43085297 C154.01028165 346.43914629 133.05427478 346.4644692 112.09823565 346.49696777 C90.5792313 346.53006686 69.06025597 346.54805267 47.54122603 346.55124539 C35.46089422 346.55340832 23.38064572 346.56212478 11.30033875 346.58770657 C1.00737203 346.60945284 -9.28549115 346.61744483 -19.57847823 346.60773978 C-24.82612659 346.60320589 -30.07356149 346.60502807 -35.32118034 346.62450123 C-40.13563825 346.64221172 -44.94972824 346.64107159 -49.76419048 346.62560394 C-51.49589027 346.62323972 -53.22761606 346.62748901 -54.95927627 346.63943259 C-69.1374159 346.73107786 -83.64092889 345.33693203 -96.34060287 338.44672108 C-96.9928685 338.10568348 -97.64513412 337.76464588 -98.31716537 337.41327381 C-115.93152046 327.86277395 -129.09311501 311.29248596 -134.96560287 292.13422108 C-140.52290712 272.57373714 -137.90187649 251.07746541 -128.16628647 233.41840076 C-117.2905117 214.65060287 -101.13914879 202.94234183 -80.55935287 197.04437733 C-73.80416243 195.33355192 -67.48764682 194.97005617 -60.55398178 194.92889881 C-59.00184982 194.91404942 -59.00184982 194.91404942 -57.41836166 194.89890003 C-54.00965257 194.86739786 -50.60092957 194.84257226 -47.19216537 194.81781483 C-44.82419098 194.79723556 -42.45622017 194.77623883 -40.08825302 194.7548418 C-33.86421245 194.69972164 -27.64013927 194.65026807 -21.41604233 194.60199451 C-15.06143934 194.551706 -8.70688354 194.49605833 -2.35232162 194.4408617 C10.10987763 194.33340314 22.57211789 194.23193094 35.03439713 194.13422108 C34.29834244 193.74387684 33.56228775 193.3535326 32.80392838 192.95135975 C31.82810806 192.42775867 30.85228775 191.9041576 29.84689713 191.36468983 C28.88396744 190.85059559 27.92103775 190.33650135 26.92892838 189.8068285 C6.40306514 177.94594042 -6.48576414 158.64220449 -13.08437729 136.35559559 C-16.55761778 122.99096824 -16.55022135 109.82160235 -16.49685287 96.08734608 C-16.4995536 93.61637692 -16.50344082 91.1454088 -16.50844955 88.67444324 C-16.51430402 83.53430377 -16.50590438 78.39444482 -16.48708725 73.25433826 C-16.46415544 66.67045218 -16.47753643 60.08721337 -16.50137711 53.50335026 C-16.51582191 48.41784232 -16.51123753 43.33248843 -16.50086594 38.2469759 C-16.4982025 35.8181065 -16.50145489 33.38922301 -16.51078415 30.96037006 C-16.52094346 27.5768605 -16.50546232 24.19440953 -16.483181 20.81097889 C-16.49127792 19.81354664 -16.49937485 18.81611439 -16.50771713 17.78845692 C-16.4360759 11.91566726 -15.82391448 8.63558462 -11.96560287 4.13422108 C-8.15919253 0.7891938 -4.99328227 0.01000155 0 0 Z M254.03439713 31.13422108 C254.03439713 50.60422108 254.03439713 70.07422108 254.03439713 90.13422108 C259.62377213 90.19609608 265.21314713 90.25797108 270.97189713 90.32172108 C272.71720718 90.34903309 274.46251724 90.3763451 276.26071548 90.40448475 C286.93424745 90.50241602 296.90263524 90.03253525 305.03439713 82.13422108 C312.30643627 72.91850326 314.20193855 64.75006684 313.03439713 53.13422108 C310.29202487 44.35183059 304.07405337 37.52368856 296.03439713 33.13422108 C290.76773802 31.34141273 286.23335007 30.86018582 280.69455338 30.93890858 C280.01356583 30.94092274 279.33257828 30.9429369 278.63095474 30.94501209 C276.11953236 30.95537078 273.60820701 30.98329225 271.09689713 31.00922108 C262.65095963 31.07109608 262.65095963 31.07109608 254.03439713 31.13422108 Z " fill="#FABE2B" transform="translate(136.96560287475586,157.86577892303467)"/>
<path d="M0 0 C1.67006271 -0.0008729 3.34012515 -0.00262544 5.01018614 -0.00517833 C9.58472156 -0.0096392 14.15916289 -0.00166553 18.73368633 0.00837779 C23.6722245 0.01702818 28.61075753 0.014091 33.54930115 0.01257324 C42.10081294 0.0115254 50.65229418 0.01779152 59.20379829 0.02904892 C71.56777927 0.04531455 83.93174549 0.05051302 96.29573601 0.0530249 C116.35629962 0.05740033 136.41684696 0.07070533 156.47740173 0.08963013 C175.96242695 0.10799285 195.44744774 0.12214744 214.93247986 0.13064575 C216.13387456 0.1311712 217.33526927 0.13169665 218.57306988 0.13223802 C224.60021486 0.13484812 230.62735987 0.13737553 236.6545049 0.13986182 C286.64243814 0.16058959 336.63035371 0.195811 386.61827087 0.24050903 C385.1481193 3.24068627 383.51885147 6.09585913 381.80015564 8.9614563 C371.73767133 25.89962289 368.46155212 44.91994678 373.18077087 64.24050903 C376.11478146 73.75255048 381.07115184 82.05364257 386.61827087 90.24050903 C384.76727173 92.09150818 381.72516038 91.36939657 379.25055981 91.3719368 C378.23613245 91.37501575 378.23613245 91.37501575 377.2012116 91.3781569 C374.90655371 91.38386779 372.61195507 91.38236464 370.31729126 91.38095093 C368.66681006 91.38353227 367.01632949 91.38654477 365.36584979 91.38995433 C360.80784072 91.39805551 356.24984737 91.39981564 351.69183195 91.4005518 C346.78427604 91.40239708 341.8767284 91.40994198 336.96917725 91.41668701 C326.22497285 91.43029541 315.48077217 91.43629963 304.73656058 91.44069767 C298.0288693 91.44345722 291.32117946 91.44769418 284.61348915 91.45220184 C266.04733082 91.46440035 247.48117366 91.47469684 228.91501141 91.47807693 C227.72558555 91.4782965 226.53615969 91.47851607 225.31069063 91.47874229 C224.11837515 91.47896056 222.92605967 91.47917884 221.69761342 91.47940373 C219.28143609 91.4798472 216.86525875 91.48029377 214.44908142 91.48074341 C212.65131055 91.48107555 212.65131055 91.48107555 210.81722108 91.48141441 C191.41286164 91.48535928 172.00853982 91.50280119 152.6041949 91.52610293 C132.68876525 91.54982544 112.77335446 91.56227928 92.85791045 91.56344485 C81.67366192 91.56436138 70.48946233 91.57010768 59.30522728 91.58826447 C49.77697291 91.60367793 40.2487826 91.60877874 30.72051813 91.60052636 C25.86036178 91.59662359 21.00033437 91.5975311 16.14019394 91.61158371 C11.6855627 91.62434563 7.23115698 91.62310498 2.77652595 91.610993 C1.1700251 91.6090399 -0.43649184 91.61209644 -2.0429701 91.62083736 C-18.36558972 91.70398321 -32.28045268 89.07286822 -44.38172913 77.24050903 C-53.66810516 66.01521932 -57.33712121 53.67754502 -56.38172913 39.24050903 C-54.58133953 28.01096037 -48.71104447 17.33232679 -39.75672913 10.24050903 C-27.13277938 1.1531389 -15.14475059 -0.0589079 0 0 Z " fill="#FBE2B1" transform="translate(86.38172912597656,382.7594909667969)"/>
<path d="M0 0 C1.10935206 -0.00307895 1.10935206 -0.00307895 2.24111527 -0.0062201 C4.72087742 -0.01187742 7.2005838 -0.01043443 9.68035126 -0.00901413 C11.47554224 -0.01159847 13.27073265 -0.01461182 15.06592226 -0.01801753 C20.00046998 -0.02608225 24.93500314 -0.0278768 29.86955667 -0.028615 C35.19068304 -0.03046639 40.51180188 -0.038014 45.83292389 -0.04475021 C57.46689691 -0.05832871 69.10086649 -0.06435705 80.73484612 -0.06876087 C87.99647215 -0.07152322 95.25809685 -0.07576047 102.51972198 -0.08026505 C122.61904822 -0.09245539 142.71837339 -0.10275627 162.81770325 -0.10614014 C164.10389404 -0.1063597 165.39008484 -0.10657927 166.71525112 -0.10680549 C168.00453214 -0.10702377 169.29381316 -0.10724204 170.6221633 -0.10746694 C173.23478031 -0.1079104 175.84739733 -0.10835697 178.46001434 -0.10880661 C179.7559649 -0.10902804 181.05191545 -0.10924947 182.38713723 -0.10947761 C203.40216264 -0.11342853 224.41715342 -0.13089255 245.43216544 -0.15416613 C266.99980243 -0.17785938 288.56742202 -0.190341 310.13507223 -0.19150805 C322.24796783 -0.19242578 334.36081829 -0.19820279 346.47370148 -0.21632767 C356.78409985 -0.23170106 367.09443913 -0.23686534 377.40484679 -0.22858956 C382.66731879 -0.22467372 387.92967167 -0.22565824 393.19212914 -0.23964691 C398.00707403 -0.25232934 402.8218096 -0.25123835 407.63675398 -0.2390562 C409.38095177 -0.23708939 411.12516411 -0.2402227 412.86934143 -0.24890056 C415.23642797 -0.25993442 417.60276804 -0.25254692 419.96983337 -0.24050903 C421.28572937 -0.24110612 422.60162536 -0.24170321 423.95739698 -0.24231839 C429.10308459 0.30287515 432.33880433 1.86141137 435.79741669 5.69392776 C439.22681411 10.64750182 439.09455729 15.218749 438.48491669 21.13142776 C436.48252018 25.13622077 434.30492791 27.79013056 430.48491669 30.13142776 C426.94339671 31.31193442 424.15833985 31.25185956 420.41820621 31.24609566 C419.32687307 31.24647824 419.32687307 31.24647824 418.21349278 31.24686855 C415.7564587 31.24650557 413.29949795 31.23895174 410.84247589 31.2314949 C409.07065045 31.22978391 407.29882452 31.22852108 405.52699846 31.22766984 C400.64285225 31.22407128 395.75873481 31.21425874 390.87459981 31.20351624 C385.61261937 31.19305679 380.35063373 31.18840661 375.08864594 31.18318558 C365.96411399 31.17346145 356.83959169 31.1604151 347.71506691 31.14546204 C333.29081571 31.12211635 318.86656382 31.10909534 304.44229889 31.09776688 C299.50892349 31.09376509 294.57554814 31.08969642 289.64217281 31.08560753 C287.79263771 31.08407869 287.79263771 31.08407869 285.90573825 31.08251896 C271.86206094 31.07076997 257.818386 31.05689371 243.77471161 31.0420723 C241.8485455 31.04004365 241.8485455 31.04004365 239.88346695 31.03797401 C219.08570589 31.01580547 198.28796105 30.98593853 177.49021287 30.95410489 C156.14187009 30.92170799 134.7935358 30.90084419 113.4451713 30.88983262 C100.275984 30.88260973 87.10687673 30.86591053 73.9377188 30.83703186 C64.90821305 30.81802337 55.87873919 30.80994683 46.84921361 30.81043683 C41.64069429 30.81037385 36.43230054 30.80541822 31.2238102 30.78726959 C26.45100119 30.7707369 21.67839188 30.76818385 16.90556341 30.77651836 C15.18337201 30.77709016 13.46116958 30.77261928 11.73900808 30.762457 C-2.2484561 30.68438233 -13.74372849 32.00047341 -25.51508331 40.13142776 C-26.40195831 40.70892776 -27.28883331 41.28642776 -28.20258331 41.88142776 C-37.53088657 50.95761472 -42.45674045 62.04870991 -42.82758331 74.94392776 C-42.56926447 86.90257082 -38.98929224 96.97294272 -31.01508331 105.94392776 C-30.19008331 106.66580276 -29.36508331 107.38767776 -28.51508331 108.13142776 C-27.62820831 108.95642776 -26.74133331 109.78142776 -25.82758331 110.63142776 C-13.98560528 120.25683042 -0.59919375 120.42247425 13.88925934 120.35174942 C15.67053923 120.35047237 17.45181994 120.35008697 19.23310024 120.35051352 C24.11530433 120.34916656 28.99740579 120.33538077 33.87958157 120.31958187 C39.14951761 120.3047561 44.41946179 120.30160706 49.68941498 120.29715347 C58.81714051 120.28797517 67.94483185 120.27180204 77.07253838 120.25119209 C90.27615605 120.2216519 103.47976312 120.20602945 116.6834074 120.19437999 C138.11473118 120.17537282 159.54604027 120.14962326 180.97734833 120.11751175 C182.25963992 120.11559381 183.54193151 120.11367588 184.86308042 120.11169983 C199.1761564 120.09014347 213.48922904 120.06696564 227.8022995 120.04201126 C232.99606574 120.03297913 238.18983201 120.02396271 243.38359833 120.01497269 C244.66523649 120.01275103 245.94687465 120.01052937 247.26735034 120.00824039 C268.6226314 119.97154413 289.97790855 119.94645558 311.33321506 119.93050295 C324.50743071 119.92015996 337.68155643 119.89972493 350.85573433 119.86638535 C359.87672564 119.84428246 368.89768943 119.83287163 377.91870721 119.82995003 C383.12652787 119.82789744 388.33422072 119.82084891 393.54200554 119.80072784 C398.30685451 119.78240435 403.07150905 119.77783181 407.83638702 119.78430564 C409.56233211 119.78418521 411.28828582 119.77894469 413.01419707 119.76813578 C415.35660115 119.75419356 417.69827166 119.75871032 420.04068279 119.7678709 C421.34280152 119.7656476 422.64492024 119.76342429 423.9864971 119.76113361 C429.11661229 120.30413642 432.34998535 121.87380115 435.79741669 125.69392776 C439.22681411 130.64750182 439.09455729 135.218749 438.48491669 141.13142776 C436.48252018 145.13622077 434.30492791 147.79013056 430.48491669 150.13142776 C426.93426596 151.31497801 424.11976535 151.26053299 420.36970329 151.26564884 C419.27048687 151.26917719 419.27048687 151.26917719 418.14906406 151.27277681 C415.6741167 151.2794755 413.19922173 151.27900832 410.72426605 151.27859879 C408.93950369 151.28189691 407.15474207 151.28562237 405.36998141 151.28974026 C400.44989416 151.299775 395.52981912 151.30347946 390.60972309 151.30612957 C385.30878237 151.31002851 380.00785135 151.31960742 374.70691681 151.32834244 C361.89373312 151.34812306 349.08054862 151.35817709 336.26735348 151.36707023 C330.23259075 151.3714523 324.1978289 151.37681949 318.16306686 151.3820591 C298.09819915 151.39907633 278.033332 151.41356868 257.96845818 151.42080784 C252.75910059 151.42271774 247.54974301 151.42463806 242.34038544 151.42659378 C241.04562379 151.42707752 239.75086215 151.42756126 238.4168653 151.42805966 C217.46080122 151.43635298 196.50479434 151.46167589 175.54875521 151.49417446 C154.02975086 151.52727355 132.51077553 151.54525936 110.99174559 151.54845208 C98.91141378 151.55061501 86.83116529 151.55933147 74.75085831 151.58491325 C64.45789159 151.60665953 54.16502841 151.61465152 43.87204133 151.60494647 C38.62439298 151.60041258 33.37695807 151.60223476 28.12933922 151.62170792 C23.31488131 151.63941841 18.50079132 151.63827828 13.68632908 151.62281062 C11.9546293 151.62044641 10.2229035 151.6246957 8.49124329 151.63663927 C-5.68689634 151.72828455 -20.19040933 150.33413872 -32.89008331 143.44392776 C-33.86848175 142.93237137 -33.86848175 142.93237137 -34.86664581 142.4104805 C-52.48100089 132.85998064 -65.64259544 116.28969264 -71.51508331 97.13142776 C-77.07238756 77.57094383 -74.45135693 56.07467209 -64.71576691 38.41560745 C-53.83999214 19.64780956 -37.68862923 7.93954851 -17.10883331 2.04158401 C-11.31695242 0.57472722 -5.97858395 0.00566328 0 0 Z " fill="#613D5B" transform="translate(73.51508331298828,352.8685722351074)"/>
<path d="M0 0 C1.04530223 -0.0013775 2.09060446 -0.00275499 3.16758251 -0.00417423 C4.31846513 -0.00057612 5.46934774 0.00302198 6.65510559 0.00672913 C7.88457822 0.00660859 9.11405085 0.00648806 10.38078022 0.00636387 C13.70804817 0.00698758 17.03525393 0.01193602 20.36251068 0.0189743 C23.48408917 0.02466705 26.60566608 0.02493731 29.72724915 0.02565002 C38.85790983 0.03089843 47.98856383 0.04485956 57.11921692 0.05775452 C77.51734192 0.07837952 97.91546692 0.09900452 118.93171692 0.12025452 C118.93171692 64.47025452 118.93171692 128.82025452 118.93171692 195.12025452 C29.47413382 195.12025452 29.47413382 195.12025452 11.64265442 177.86244202 C10.74804504 176.95752014 9.85343567 176.05259827 8.93171692 175.12025452 C8.11960754 174.31845764 7.30749817 173.51666077 6.47077942 172.69056702 C-9.38109182 156.18947238 -16.37925871 133.20786392 -16.35881042 110.68544006 C-16.36552765 109.60107162 -16.37224487 108.51670319 -16.37916565 107.3994751 C-16.39800619 103.85192665 -16.40206151 100.30456846 -16.40422058 96.75697327 C-16.41065374 94.27600021 -16.41738249 91.79502789 -16.4243927 89.3140564 C-16.43632726 84.13216897 -16.44007701 78.95034806 -16.43888855 73.76844788 C-16.43868455 67.12947989 -16.4660874 60.49093607 -16.50043297 53.8520689 C-16.522656 48.73655228 -16.52672764 43.62113895 -16.5256691 38.50557899 C-16.5280281 36.05715778 -16.53686837 33.60873384 -16.55233383 31.16036034 C-16.57191779 27.74263344 -16.56618692 24.32583804 -16.55412292 20.90809631 C-16.56536194 19.89966675 -16.57660095 18.89123718 -16.58818054 17.85224915 C-16.53518197 11.94691709 -15.958171 8.64129817 -12.06828308 4.12025452 C-8.22393496 0.74188798 -5.04040562 -0.00509647 0 0 Z " fill="#FED300" transform="translate(137.0682830810547,157.87974548339844)"/>
<path d="M0 0 C1.1750643 -0.00128164 1.1750643 -0.00128164 2.37386727 -0.00258917 C5.00099738 -0.00423737 7.62806375 0.00126665 10.25518799 0.00672913 C12.13752745 0.00701117 14.01986702 0.00685294 15.90220642 0.00628662 C21.01545246 0.0059993 26.12867511 0.0118855 31.2419157 0.01886058 C36.58441233 0.02510497 41.92690947 0.02569878 47.26940918 0.02688599 C57.38762301 0.02999609 67.50582605 0.03820518 77.62403512 0.04823548 C89.14264971 0.05940655 100.66126482 0.06490957 112.17988348 0.06993091 C135.87588961 0.08038804 159.57188539 0.09818235 183.2678833 0.12025452 C183.2678833 10.02025452 183.2678833 19.92025452 183.2678833 30.12025452 C177.63508301 30.13427307 177.63508301 30.13427307 171.88848877 30.14857483 C159.48716477 30.18232822 147.08601612 30.2376669 134.6848278 30.30415726 C127.16530887 30.34394617 119.64589456 30.37633935 112.12628174 30.39125061 C105.57124575 30.40426798 99.01643999 30.43123453 92.46153367 30.47486758 C88.9915392 30.49748086 85.52182868 30.51316531 82.051754 30.51213837 C78.17548056 30.51125282 74.2997866 30.54151352 70.42364502 30.57435608 C69.27637436 30.56932571 68.1291037 30.56429535 66.94706726 30.55911255 C60.77019844 30.64018445 56.92018451 30.89380247 52.2678833 35.12025452 C49.3453936 39.50398906 48.7083593 42.89803051 49.2678833 48.12025452 C50.73231837 52.26948721 52.50018001 54.91572457 56.25226212 57.29250336 C60.71851453 59.12665039 65.67113018 58.686991 70.42364502 58.66615295 C72.25375374 58.68165947 72.25375374 58.68165947 74.12083435 58.69747925 C77.45328616 58.72186295 80.78490146 58.72874558 84.11738348 58.72775936 C87.60481879 58.73089468 91.09208821 58.75652567 94.57943726 58.77973938 C101.17722998 58.82025579 107.77492398 58.84062975 114.37282193 58.85371327 C121.88681218 58.86959817 129.40063478 58.90801999 136.91452765 58.94830656 C152.36562197 59.03064589 167.81660797 59.08180037 183.2678833 59.12025452 C183.2678833 69.02025452 183.2678833 78.92025452 183.2678833 89.12025452 C158.55458598 89.21293785 133.84133068 89.28427777 109.1278944 89.3275032 C97.65244306 89.34810896 86.17710184 89.37619165 74.70172119 89.42201233 C64.69719709 89.46194083 54.69275276 89.48770176 44.68815118 89.4966085 C39.39311203 89.50181303 34.09830106 89.51400431 28.80333519 89.54317474 C23.81372011 89.5704388 18.824426 89.57867734 13.8347435 89.57268524 C12.00909363 89.57378057 10.18343239 89.58166868 8.35784721 89.59707642 C-7.10960132 89.72115447 -17.62813412 87.35719113 -29.3571167 76.74525452 C-38.78842359 66.32117848 -43.11626693 55.44191326 -42.9430542 41.30775452 C-42.21450659 30.29859066 -37.29675965 20.12987647 -29.7321167 12.12025452 C-20.87424445 4.4213562 -11.73712839 -0.04673612 0 0 Z " fill="#FEF6CB" transform="translate(72.73211669921875,383.87974548339844)"/>
<path d="M0 0 C2.10837341 -0.02860653 4.21672088 -0.0514441 6.32518536 -0.0721221 C8.74044735 -0.09759431 11.15563496 -0.13429715 13.57048374 -0.18572378 C19.09360575 -0.23146937 23.1320804 -0.13950587 27.85569054 3.08912516 C32.52746397 8.26595517 33.20352464 11.48266014 33.14084679 18.32350016 C32.64459534 23.13645945 30.31754469 25.80446545 26.79319054 28.90162516 C23.71722656 30.7868934 21.18584731 31.2139745 17.66029125 31.21217299 C16.80088619 31.21416403 15.94148113 31.21615508 15.05603349 31.21820647 C14.11148968 31.21529362 13.16694588 31.21238078 12.19377953 31.20937967 C10.68922912 31.21066131 10.68922912 31.21066131 9.15428376 31.21196884 C5.77779793 31.213622 2.40136128 31.2081049 -0.97512001 31.20265055 C-3.38932491 31.20236861 -5.8035299 31.20252653 -8.21773475 31.20309305 C-13.42332829 31.20332111 -18.62891061 31.20047622 -23.83450073 31.19485521 C-31.36094047 31.18673343 -38.88737415 31.1841243 -46.4138178 31.18286722 C-58.62452223 31.18067777 -70.83521998 31.17402058 -83.04592079 31.16456461 C-94.90855066 31.15538773 -106.77117871 31.14830824 -118.63381141 31.1440568 C-119.73035003 31.14366271 -119.73035003 31.14366271 -120.84904095 31.14326067 C-124.51632649 31.14195564 -128.18361205 31.14069193 -131.85089761 31.13944876 C-162.28203982 31.12907948 -192.71317335 31.11118914 -223.14430946 31.08912516 C-223.14430946 21.18912516 -223.14430946 11.28912516 -223.14430946 1.08912516 C-195.48226138 0.95793819 -167.82020994 0.82748406 -140.15815395 0.69797373 C-127.31117082 0.63780775 -114.46418895 0.5773931 -101.61720985 0.51637125 C-90.40614032 0.46312046 -79.1950686 0.41035843 -67.98399413 0.35815811 C-62.06026119 0.33055999 -56.13652953 0.30273428 -50.21280044 0.27432108 C-49.07510993 0.26888647 -47.93741941 0.26345185 -46.76525342 0.25785255 C-44.51335808 0.24709079 -42.261463 0.23627221 -40.00956821 0.22539425 C-34.68879603 0.20009299 -29.36803438 0.17708998 -24.04723018 0.15965891 C-22.06409704 0.15303654 -20.08096404 0.14637202 -18.09783119 0.13966227 C-16.67849144 0.13492246 -16.67849144 0.13492246 -15.23047817 0.1300869 C-10.1531672 0.1103313 -5.07686328 0.07033686 0 0 Z " fill="#4B2746" transform="translate(479.1443094611168,472.9108748435974)"/>
<path d="M0 0 C9.33215971 -0.00480997 18.66418092 -0.02282719 27.99629873 -0.05106711 C35.38561272 -0.07262898 42.77488696 -0.08276555 50.16423208 -0.08410764 C54.51388842 -0.08514674 58.86340739 -0.09087915 63.21302927 -0.10892725 C67.23514959 -0.12534177 71.25702666 -0.12759643 75.27916849 -0.11878824 C76.74576158 -0.11801816 78.21236783 -0.12235684 79.67892778 -0.13224649 C81.6803615 -0.14496023 83.68189354 -0.13729957 85.68334901 -0.12866449 C86.79935267 -0.13013105 87.91535633 -0.13159761 89.06517828 -0.13310862 C93.9684871 0.45327821 97.1946172 2.15215098 100.48777711 5.80132818 C103.91717454 10.75490224 103.78491772 15.32614942 103.17527711 21.23882818 C101.17288061 25.24362119 98.99528834 27.89753098 95.17527711 30.23882818 C92.41274943 31.15967074 90.8225826 31.35933189 87.97987783 31.34625864 C87.12047277 31.34476629 86.26106771 31.34327395 85.37562007 31.34173638 C83.95880435 31.33153069 83.95880435 31.33153069 82.5133661 31.32111883 C81.0088157 31.31627514 81.0088157 31.31627514 79.47387034 31.3113336 C76.0973644 31.29922536 72.72093848 31.27985934 69.34446657 31.2605567 C66.93026344 31.25041742 64.5160584 31.24072337 62.10185182 31.23144293 C56.89624588 31.21042641 51.69066412 31.1862994 46.48508584 31.15936232 C38.95866313 31.12042101 31.43222385 31.08705975 23.90576877 31.05506705 C11.6950481 31.00301112 -0.51564728 30.94643282 -12.72633421 30.88702154 C-24.5889544 30.82931344 -36.4515814 30.77372838 -48.31422484 30.72100592 C-49.04525059 30.7177562 -49.77627633 30.71450648 -50.52945437 30.71115828 C-54.19673977 30.69486877 -57.86402536 30.67862107 -61.53131104 30.66239417 C-91.96247983 30.52768905 -122.39360866 30.38537095 -152.82472289 30.23882818 C-152.82472289 20.66882818 -152.82472289 11.09882818 -152.82472289 1.23882818 C-101.88248268 0.48574994 -50.94799084 0.02577962 0 0 Z " fill="#4B2746" transform="translate(408.8247228860855,352.76117181777954)"/>
<path d="M0 0 C6.84597788 -0.10252838 13.69175345 -0.17193196 20.53833008 -0.21972656 C22.86099648 -0.23967881 25.18361373 -0.26685049 27.50610352 -0.30175781 C48.9618069 -0.61585638 68.43961402 0.97226043 84.875 16.65234375 C98.67072181 31.89357317 102.88807926 48.21856578 102.17480469 68.40917969 C101.24590695 82.17658575 94.0162155 95.62936089 84 105 C67.40754242 118.8702575 50.65096062 121.48999888 29.75 121.1875 C27.92579235 121.17241988 26.10157258 121.15873739 24.27734375 121.14648438 C19.85101143 121.11633225 15.42639568 121.05756873 11 121 C11.33 110.77 11.66 100.54 12 90 C14.42214844 89.96261719 16.84429687 89.92523438 19.33984375 89.88671875 C21.71305838 89.84036827 24.08612367 89.78918419 26.45922852 89.73754883 C28.09520214 89.70451025 29.73128399 89.6764143 31.36743164 89.65356445 C47.31517286 89.61829199 47.31517286 89.61829199 61 82 C61.66 82 62.32 82 63 82 C63.27585937 81.42894531 63.55171875 80.85789062 63.8359375 80.26953125 C65 78 65 78 66.2890625 75.94921875 C70.66669464 68.53796434 71.163342 61.46149531 70 53 C68.72812016 49.35737354 67.04638019 46.25560485 65 43 C64.69835937 42.29230469 64.39671875 41.58460938 64.0859375 40.85546875 C62.70809952 38.50124917 61.49300854 38.03111566 59 37 C58.34 36.65839844 57.68 36.31679687 57 35.96484375 C56.34 35.62582031 55.68 35.28679687 55 34.9375 C54.34 34.59589844 53.68 34.25429687 53 33.90234375 C48.42707421 31.83916825 43.90740986 31.794742 38.953125 31.68359375 C38.18192322 31.66281265 37.41072144 31.64203156 36.6161499 31.62062073 C34.16085428 31.55541428 31.70545479 31.49637516 29.25 31.4375 C27.58202065 31.39428726 25.91405168 31.3506721 24.24609375 31.30664062 C20.16416804 31.19976264 16.08213818 31.09841434 12 31 C11.9906543 30.42556152 11.98130859 29.85112305 11.97167969 29.25927734 C11.91764969 26.63034696 11.83407106 24.00313433 11.75 21.375 C11.73582031 20.47136719 11.72164063 19.56773437 11.70703125 18.63671875 C11.49454401 12.8145683 10.79104416 9.48097152 7 5 C5.02329393 3.24577228 5.02329393 3.24577228 3 2 C2.01 1.34 1.02 0.68 0 0 Z " fill="#FE9F00" transform="translate(379,158)"/>
<path d="M0 0 C3.5677811 2.35149209 5.84221079 4.99692157 7.75 8.8125 C7.98828125 11.203125 7.98828125 11.203125 8.0625 14.0625 C8.11857422 15.46242188 8.11857422 15.46242188 8.17578125 16.890625 C7.02792259 24.76767342 -0.50856835 30.1577704 -6.02539062 35.33398438 C-7.00862305 36.2843457 -7.00862305 36.2843457 -8.01171875 37.25390625 C-8.908302 38.09997437 -8.908302 38.09997437 -9.82299805 38.96313477 C-11.59347762 41.25763995 -12.01345045 42.93883973 -12.25 45.8125 C-10.72736721 48.53339329 -10.72736721 48.53339329 -8.5 51.125 C-1.48838448 60.31474391 0.82164943 69.32253948 -0.65234375 81 C-3.19828484 92.8107563 -10.39570528 100.45037644 -18.8125 108.75 C-19.64974609 109.59884766 -20.48699219 110.44769531 -21.34960938 111.32226562 C-22.16365234 112.13244141 -22.97769531 112.94261719 -23.81640625 113.77734375 C-24.54802979 114.5055835 -25.27965332 115.23382324 -26.03344727 115.98413086 C-30.13665961 119.36875001 -33.9519867 120.22249193 -39.26171875 120.0625 C-43.79164871 119.49292138 -46.56247966 117.57434686 -49.5625 114.25 C-51.98220563 110.75486964 -52.45270992 108.79230736 -52.5625 104.5625 C-52.59988281 103.62921875 -52.63726562 102.6959375 -52.67578125 101.734375 C-51.52792259 93.85732658 -43.99143165 88.4672296 -38.47460938 83.29101562 C-37.49137695 82.3406543 -37.49137695 82.3406543 -36.48828125 81.37109375 C-35.89055908 80.80704834 -35.29283691 80.24300293 -34.67700195 79.66186523 C-32.90024675 77.35922697 -32.46983897 75.69992873 -32.25 72.8125 C-33.58912926 70.60530685 -34.90224623 68.74794901 -36.5 66.75 C-43.18486766 57.70652379 -45.08119687 49.09221253 -43.8203125 37.8515625 C-41.56391864 25.82776507 -33.07228117 17.2856664 -24.6875 8.9375 C-23.94564453 8.17953125 -23.20378906 7.4215625 -22.43945312 6.640625 C-21.71564453 5.91617187 -20.99183594 5.19171875 -20.24609375 4.4453125 C-19.59825928 3.79449707 -18.9504248 3.14368164 -18.28295898 2.47314453 C-12.8207748 -1.98869969 -6.44252936 -2.35400111 0 0 Z " fill="#FEE6B3" transform="translate(278.25,9.1875)"/>
<path d="M0 0 C3.5677811 2.35149209 5.84221079 4.99692157 7.75 8.8125 C7.98828125 11.203125 7.98828125 11.203125 8.0625 14.0625 C8.11857422 15.46242188 8.11857422 15.46242188 8.17578125 16.890625 C7.02792259 24.76767342 -0.50856835 30.1577704 -6.02539062 35.33398438 C-7.00862305 36.2843457 -7.00862305 36.2843457 -8.01171875 37.25390625 C-8.908302 38.09997437 -8.908302 38.09997437 -9.82299805 38.96313477 C-11.59975325 41.26577303 -12.03016103 42.92507127 -12.25 45.8125 C-10.91087074 48.01969315 -9.59775377 49.87705099 -8 51.875 C-1.31513234 60.91847621 0.58119687 69.53278747 -0.6796875 80.7734375 C-2.93608136 92.79723493 -11.42771883 101.3393336 -19.8125 109.6875 C-20.55435547 110.44546875 -21.29621094 111.2034375 -22.06054688 111.984375 C-23.14625977 113.07105469 -23.14625977 113.07105469 -24.25390625 114.1796875 C-25.22565796 115.15591064 -25.22565796 115.15591064 -26.21704102 116.15185547 C-30.22684368 119.42730614 -34.10938247 120.2177493 -39.26171875 120.0625 C-43.79164871 119.49292138 -46.56247966 117.57434686 -49.5625 114.25 C-51.98220563 110.75486964 -52.45270992 108.79230736 -52.5625 104.5625 C-52.59988281 103.62921875 -52.63726562 102.6959375 -52.67578125 101.734375 C-51.52792259 93.85732658 -43.99143165 88.4672296 -38.47460938 83.29101562 C-37.49137695 82.3406543 -37.49137695 82.3406543 -36.48828125 81.37109375 C-35.89055908 80.80704834 -35.29283691 80.24300293 -34.67700195 79.66186523 C-32.90024675 77.35922697 -32.46983897 75.69992873 -32.25 72.8125 C-33.58912926 70.60530685 -34.90224623 68.74794901 -36.5 66.75 C-43.18486766 57.70652379 -45.08119687 49.09221253 -43.8203125 37.8515625 C-41.56391864 25.82776507 -33.07228117 17.2856664 -24.6875 8.9375 C-23.94564453 8.17953125 -23.20378906 7.4215625 -22.43945312 6.640625 C-21.71564453 5.91617187 -20.99183594 5.19171875 -20.24609375 4.4453125 C-19.59825928 3.79449707 -18.9504248 3.14368164 -18.28295898 2.47314453 C-12.8207748 -1.98869969 -6.44252936 -2.35400111 0 0 Z " fill="#FEE6B3" transform="translate(338.25,9.1875)"/>
<path d="M0 0 C3.5677811 2.35149209 5.84221079 4.99692157 7.75 8.8125 C7.98828125 11.203125 7.98828125 11.203125 8.0625 14.0625 C8.11857422 15.46242188 8.11857422 15.46242188 8.17578125 16.890625 C7.02792259 24.76767342 -0.50856835 30.1577704 -6.02539062 35.33398438 C-7.00862305 36.2843457 -7.00862305 36.2843457 -8.01171875 37.25390625 C-8.908302 38.09997437 -8.908302 38.09997437 -9.82299805 38.96313477 C-11.59975325 41.26577303 -12.03016103 42.92507127 -12.25 45.8125 C-10.91087074 48.01969315 -9.59775377 49.87705099 -8 51.875 C-1.31513234 60.91847621 0.58119687 69.53278747 -0.6796875 80.7734375 C-2.93608136 92.79723493 -11.42771883 101.3393336 -19.8125 109.6875 C-20.55435547 110.44546875 -21.29621094 111.2034375 -22.06054688 111.984375 C-23.14625977 113.07105469 -23.14625977 113.07105469 -24.25390625 114.1796875 C-25.22565796 115.15591064 -25.22565796 115.15591064 -26.21704102 116.15185547 C-30.22684368 119.42730614 -34.10938247 120.2177493 -39.26171875 120.0625 C-43.79164871 119.49292138 -46.56247966 117.57434686 -49.5625 114.25 C-51.98220563 110.75486964 -52.45270992 108.79230736 -52.5625 104.5625 C-52.59988281 103.62921875 -52.63726562 102.6959375 -52.67578125 101.734375 C-51.52792259 93.85732658 -43.99143165 88.4672296 -38.47460938 83.29101562 C-37.49137695 82.3406543 -37.49137695 82.3406543 -36.48828125 81.37109375 C-35.89055908 80.80704834 -35.29283691 80.24300293 -34.67700195 79.66186523 C-32.90024675 77.35922697 -32.46983897 75.69992873 -32.25 72.8125 C-33.58912926 70.60530685 -34.90224623 68.74794901 -36.5 66.75 C-43.18486766 57.70652379 -45.08119687 49.09221253 -43.8203125 37.8515625 C-41.56391864 25.82776507 -33.07228117 17.2856664 -24.6875 8.9375 C-23.94564453 8.17953125 -23.20378906 7.4215625 -22.43945312 6.640625 C-21.71564453 5.91617187 -20.99183594 5.19171875 -20.24609375 4.4453125 C-19.59825928 3.79449707 -18.9504248 3.14368164 -18.28295898 2.47314453 C-12.8207748 -1.98869969 -6.44252936 -2.35400111 0 0 Z " fill="#FEF6CB" transform="translate(218.25,9.1875)"/>
<path d="M0 0 C1.58177788 -0.002062 1.58177788 -0.002062 3.19551086 -0.00416565 C4.35716263 -0.00057037 5.51881439 0.0030249 6.71566772 0.00672913 C7.9351561 0.0065831 9.15464447 0.00643707 10.41108704 0.00628662 C13.76005938 0.00686497 17.10897049 0.01188906 20.457932 0.01886058 C23.95598197 0.02510104 27.45403272 0.02569847 30.9520874 0.02688599 C37.57835618 0.02999725 44.20460851 0.0382079 50.83087003 0.04823548 C58.37369686 0.05940294 65.91652447 0.06490866 73.4593575 0.06993091 C88.97758534 0.08039067 104.49579052 0.09873363 120.01400757 0.12025452 C120.01400757 9.69025452 120.01400757 19.26025452 120.01400757 29.12025452 C103.81964463 29.21058995 87.6254971 29.28425675 71.43095207 29.3275032 C63.91134488 29.34811806 56.39190549 29.37621784 48.87240601 29.42201233 C42.31748883 29.46191335 35.76269319 29.48769517 29.20765793 29.4966085 C25.7375783 29.50181781 22.26784634 29.51403846 18.79787827 29.54317474 C14.92177625 29.57545645 11.04601264 29.57621182 7.16976929 29.57435608 C6.02249863 29.58873718 4.87522797 29.60311829 3.69319153 29.61793518 C-2.51753628 29.5857181 -6.28007474 29.320256 -10.98599243 25.12025452 C-13.88827661 21.81765528 -14.90158296 19.23868004 -15.23599243 14.80775452 C-14.87315837 9.45595215 -13.40493192 6.40076089 -9.42349243 2.80775452 C-5.93531362 0.39286149 -4.20224291 -0.00421066 0 0 Z " fill="#FFE6B3" transform="translate(135.98599243164063,413.87974548339844)"/>
<path d="M0 0 C12.39592381 -0.13564183 24.79135343 -0.24568264 37.18785191 -0.31087303 C42.94428172 -0.34216381 48.70017677 -0.38459673 54.45629883 -0.45263672 C60.0130481 -0.51790776 65.56928355 -0.553723 71.12638664 -0.56926346 C73.24470037 -0.58033576 75.36298648 -0.60195789 77.48108101 -0.63438034 C80.45227581 -0.67804592 83.42135738 -0.68392979 86.39282227 -0.68115234 C87.26532623 -0.702724 88.1378302 -0.72429565 89.03677368 -0.746521 C94.59877141 -0.69039631 97.53780906 0.5151201 101.61118984 4.32082176 C104.89744991 8.2941628 105.44031164 11.72334722 105.31640625 16.75390625 C104.67912909 21.27778732 101.9975092 23.96308323 98.94172668 27.1395874 C94.79909111 29.75948117 91.42562071 29.53266515 86.61987305 29.45410156 C85.68280014 29.45468567 84.74572723 29.45526978 83.78025818 29.45587158 C80.69036507 29.45309023 77.60144284 29.4219953 74.51171875 29.390625 C72.36652656 29.38316281 70.22132755 29.37746977 68.0761261 29.37347412 C62.43546665 29.35821619 56.7952205 29.31893258 51.15472412 29.2746582 C45.39682608 29.23370919 39.63886112 29.21546387 33.88085938 29.1953125 C22.58702897 29.15243872 11.29361354 29.08208715 0 29 C0 19.43 0 9.86 0 0 Z " fill="#FFCA80" transform="translate(256,414)"/>
<path d="M0 0 C0.1854459 13.43878293 0.32755146 26.87726099 0.41449738 40.31706333 C0.45622983 46.55794565 0.51282522 52.79795195 0.60351562 59.03833008 C0.69050704 65.06195099 0.73828875 71.08472995 0.75901794 77.10893059 C0.77378795 79.40592644 0.80263155 81.70287672 0.84584045 83.99951363 C0.90401812 87.22016683 0.911909 90.43735225 0.90820312 93.65844727 C0.95134644 95.07941208 0.95134644 95.07941208 0.99536133 96.52908325 C0.94601868 100.49852271 0.80237978 103.0024284 -1.73658752 106.15904045 C-6.59833938 110.54692482 -10.23191284 112.32564272 -16.94140625 112.21484375 C-21.50976317 111.73807026 -24.30117726 109.77437114 -27.3125 106.4375 C-29.73220563 102.94236964 -30.20270992 100.97980736 -30.3125 96.75 C-30.34988281 95.81671875 -30.38726562 94.8834375 -30.42578125 93.921875 C-29.27792259 86.04482658 -21.74143165 80.6547296 -16.22460938 75.47851562 C-15.24137695 74.5281543 -15.24137695 74.5281543 -14.23828125 73.55859375 C-13.64055908 72.99454834 -13.04283691 72.43050293 -12.42700195 71.84936523 C-10.65024675 69.54672697 -10.21983897 67.88742873 -10 65 C-11.33912926 62.79280685 -12.65224623 60.93544901 -14.25 58.9375 C-20.93486766 49.89402379 -22.83119687 41.27971253 -21.5703125 30.0390625 C-20.11751646 22.29745072 -9.05638663 0 0 0 Z " fill="#FEF6CB" transform="translate(256,17)"/>
</svg>
