<svg xmlns="http://www.w3.org/2000/svg" width="25" height="24" fill="none"><path fill="#52319c" d="M25 3.57h-1.195v14.29H25zM23.805 17.86h-1.188v1.187h1.188zM23.805 2.383h-1.188V3.57h1.188zM22.617 19.047H21.43v1.187h1.187zM22.617 1.188H21.43v1.195h1.187zM21.43 15.477h-1.196v1.187h1.196zM21.43 4.766h-1.196v1.187h1.196zM21.43 20.234h-3.578v1.196h3.578zM20.234 14.29h-1.187v1.187h1.187zM20.234 5.953h-1.187v1.188h1.187zM21.43 0h-3.578v1.188h3.578zM19.047 7.14h-1.195v7.15h1.195zM17.852 19.047h-2.375v1.187h2.375zM17.852 1.188h-2.375v1.195h2.375zM15.477 17.86h-2.383v1.187h2.383zM15.477 2.383h-2.383V3.57h2.383zM13.094 16.664h-3.57v1.196h3.57zM13.094 3.57h-3.57v1.195h3.57zM7.14 15.477V5.953h2.384V4.766H3.57v1.187H1.188v1.188H0v7.148h1.188v1.188H3.57v7.14h1.188v-5.953H7.14v5.953h1.187v-5.953h1.196v-1.187zM3.57 8.336H2.383v2.375H1.188V8.336h1.195V7.141H3.57zM7.14 22.617H4.759v1.196H7.14z"/></svg>