<svg width="25" height="24" viewBox="0 0 25 24" fill="none" xmlns="http://www.w3.org/2000/svg">
<path d="M25 3.57007H23.8047V17.8593H25V3.57007Z" fill="#6155F5"/>
<path d="M23.8047 17.8594H22.6172V19.0469H23.8047V17.8594Z" fill="#6155F5"/>
<path d="M23.8047 2.38257H22.6172V3.57008H23.8047V2.38257Z" fill="#6155F5"/>
<path d="M22.6172 19.0469H21.4297V20.2344H22.6172V19.0469Z" fill="#6155F5"/>
<path d="M22.6172 1.1875H21.4297V2.38282H22.6172V1.1875Z" fill="#6155F5"/>
<path d="M21.4297 15.4766H20.2344V16.6641H21.4297V15.4766Z" fill="#6155F5"/>
<path d="M21.4297 4.76562H20.2344V5.95314H21.4297V4.76562Z" fill="#6155F5"/>
<path d="M21.4297 20.2344H17.8516V21.4297H21.4297V20.2344Z" fill="#6155F5"/>
<path d="M20.2344 14.2891H19.0469V15.4766H20.2344V14.2891Z" fill="#6155F5"/>
<path d="M20.2344 5.95312H19.0469V7.14063H20.2344V5.95312Z" fill="#6155F5"/>
<path d="M21.4297 0H17.8516V1.18751H21.4297V0Z" fill="#6155F5"/>
<path d="M19.0469 7.14062H17.8516V14.2891H19.0469V7.14062Z" fill="#6155F5"/>
<path d="M17.8516 19.0469H15.4766V20.2344H17.8516V19.0469Z" fill="#6155F5"/>
<path d="M17.8516 1.1875H15.4766V2.38282H17.8516V1.1875Z" fill="#6155F5"/>
<path d="M15.4766 17.8594H13.0938V19.0469H15.4766V17.8594Z" fill="#6155F5"/>
<path d="M15.4766 2.38257H13.0938V3.57008H15.4766V2.38257Z" fill="#6155F5"/>
<path d="M13.0938 16.6643H9.52344V17.8596H13.0938V16.6643Z" fill="#6155F5"/>
<path d="M13.0938 3.57007H9.52344V4.76539H13.0938V3.57007Z" fill="#6155F5"/>
<path d="M7.14069 15.4767V5.95314H9.52352V4.76562H3.57034V5.95314H1.18751V7.14064H0V14.2891H1.18751V15.4767H3.57034V22.6173H4.75785V16.6642H7.14069V22.6173H8.3282V16.6642H9.52352V15.4767H7.14069ZM3.57034 8.33597H2.38283V10.711H1.18751V8.33597H2.38283V7.14064H3.57034V8.33597Z" fill="#6155F5"/>
<path d="M7.14065 22.6174H4.75781V23.8128H7.14065V22.6174Z" fill="#6155F5"/>
</svg>
